<svg xmlns="http://www.w3.org/2000/svg" xml:space="preserve" width="2000" height="1500" data-id="lg_S9BaZbw8gBg8IBrt3B" data-version="1" viewBox="0 0 2000 1500"><path fill="#ef382e" stroke="transparent" d="M0 0h2000v1500H0z"/><g data-padding="20"><g transform="translate(-1651.786 -1245.153)scale(2.5829)"><rect width="571.095" height="294.252" x="353.908" y="232.919" fill="none" rx="0" ry="0" transform="matrix(.98 0 0 .98 400 400)"/><path fill="#fff" d="M762.547 656.343v-3.018h71.344l1.372 28.537h-2.47q-5.076-14.817-11.73-20.168t-19.825-5.35h-3.842v44.59h6.174q6.586 0 10.976-4.803t6.037-13.17h2.058v40.61h-2.333q-2.195-10.29-6.105-14.68t-10.633-4.39h-6.174v41.845h17.013v3.02h-51.862v-3.02h8.095v-90.002Zm155.86 90.552v2.47h-31.282l-1.51-10.016q-2.195 5.488-6.516 8.438t-12.829 2.95q-21.266 0-21.266-22.913v-41.297h-7.683v-2.47h33.203v47.06q0 8.232 1.166 10.84t4.665 2.606 6.242-4.254 2.744-11.799v-41.983h-6.31v-2.47h31.83v62.838Zm48.568-58.996q-5.076 0-8.918 6.586t-3.84 15.64v36.77h9.74v2.47H921.15v-2.47h7.546v-60.368h-7.546v-2.47h33.066v13.172q1.783-6.998 6.86-10.77 5.076-3.774 11.524-3.774t10.496 3.636 4.048 10.29-3.019 10.222-9.26 3.567q-6.243 0-9.193-4.116t-.755-11.388h4.94q3.43-6.997-2.882-6.997m62.152 23.324h-34.575v-4.116h34.575Zm54.057-23.324q-5.077 0-8.918 6.586t-3.842 15.64v36.77h9.741v2.47h-42.806v-2.47h7.546v-60.368h-7.546v-2.47h33.065v13.172q1.784-6.998 6.86-10.77 5.076-3.774 11.525-3.774t10.496 3.636 4.047 10.29-3.018 10.222-9.26 3.567q-6.244 0-9.194-4.116t-.754-11.388h4.94q3.43-6.997-2.882-6.997m57.486 62.838q-17.698 0-26.548-9.124t-8.85-25.382 9.948-24.902 25.313-8.644q31.145 0 29.91 31.282h-38.69v5.35q0 13.446 3.43 20.306t11.936 6.86q15.915 0 20.854-17.012l2.47.411q-2.607 9.88-9.398 15.367t-20.375 5.488m-8.78-46.237v6.723h14.131V704.5q0-11.113-1.303-15.16-1.304-4.048-5.214-4.048t-5.762 4.322-1.852 14.886m76.42 12.623h3.98v-10.565q0-13.034-1.44-17.493-1.442-4.459-5.558-4.459-2.47 0-4.46 1.304t-1.989 3.567.823 4.596h3.43q1.098 2.881 1.098 6.93 0 4.046-3.43 6.996t-8.644 2.95q-11.799 0-11.799-11.388 0-16.876 28.675-16.876 16.327 0 22.57 5.557t6.242 20.374v27.852q0 7.134 3.98 7.134 4.664 0 5.487-14.13l2.058.136q-.549 12.073-4.528 16.601t-13.034 4.528q-16.464 0-18.933-10.153-1.784 5.213-5.35 7.683t-10.428 2.47q-20.306 0-20.306-16.602 0-9.74 7.752-13.377 7.752-3.635 23.804-3.635m-5.488 16.875q0 7.135.755 9.193.754 2.058 2.88 2.058t3.98-3.499q1.852-3.499 1.852-9.673v-12.76h-.96q-8.507 0-8.507 12.486Zm47.334-85.064v-2.47h33.614v100.431h7.683v2.47h-40.748v-2.47h7.546v-97.96ZM856.902 789.26v-2.606h40.336q20.718 0 30.87 5.968t10.153 21.334q0 17.013-12.348 23.462-11.525 5.9-32.242 5.9h-1.097v36.77h17.15v2.606h-52.822v-2.607h8.918V789.26Zm39.376 0h-3.704v51.45h2.88q8.233 0 11.388-5.625 3.156-5.625 3.156-18.247v-6.586q0-11.662-2.95-16.327t-10.77-4.665m67.09 18.66q-7.27 0-10.358-3.705-3.087-3.704-3.087-9.192t3.362-9.055q3.361-3.568 10.221-3.568t10.427 3.225 3.567 9.192-3.43 9.535-10.7 3.568m-20.718 11.936v-2.47h33.614v62.838h7.683v2.47H943.2v-2.47h7.546v-60.368Zm50.215-2.47h57.624v2.47l-32.517 60.368h1.784q11.525 0 18.11-6.037 6.586-6.037 10.29-19.62h1.921l-2.195 28.127H990.26v-2.058l33.065-60.78h-1.509q-13.857 0-19.277 4.528-5.419 4.527-9.672 19.345h-1.784Zm67.914 0h57.624v2.47l-32.518 60.368h1.784q11.525 0 18.11-6.037 6.586-6.037 10.29-19.62h1.921l-2.195 28.127h-57.624v-2.058l33.065-60.78h-1.509q-13.857 0-19.277 4.528-5.419 4.527-9.672 19.345h-1.784Zm95.354 33.066h3.98v-10.565q0-13.034-1.442-17.493-1.44-4.459-5.557-4.459-2.47 0-4.459 1.304t-1.989 3.567.823 4.596h3.43q1.098 2.881 1.098 6.93 0 4.046-3.43 6.996t-8.644 2.95q-11.799 0-11.799-11.388 0-16.876 28.675-16.876 16.327 0 22.57 5.557t6.242 20.374v27.852q0 7.134 3.98 7.134 4.663 0 5.487-14.13l2.058.136q-.55 12.073-4.528 16.601-3.979 4.528-13.034 4.528-16.464 0-18.934-10.153-1.783 5.213-5.35 7.683-3.568 2.47-10.428 2.47-20.305 0-20.305-16.602 0-9.74 7.752-13.377 7.751-3.635 23.804-3.635m-5.488 16.875q0 7.135.754 9.193.755 2.058 2.882 2.058t3.978-3.499q1.853-3.499 1.853-9.673v-12.76h-.96q-8.507 0-8.507 12.486Z"/></g><path fill="transparent" stroke="transparent" stroke-width="2.679" d="M250 364.286h1500v771.428H250z"/></g></svg>